<svg width="20" height="20" viewBox="0 0 20 20" fill="none" xmlns="http://www.w3.org/2000/svg">
<path d="M16.9894 1.80199C16.5839 1.39566 16.0447 1.17188 15.471 1.17188H14.502V0.976562C14.502 0.438086 14.0639 0 13.5254 0H6.49414C5.95567 0 5.51758 0.438086 5.51758 0.976562V1.17188H4.54504C3.36297 1.17188 2.4002 2.13461 2.39887 3.31793L2.38281 17.8492C2.38219 18.4235 2.60512 18.9636 3.01055 19.3699C3.41602 19.7762 3.95527 20 4.52899 20H15.4549C16.637 20 17.5998 19.0373 17.6011 17.8539L17.6172 3.3227C17.6179 2.74836 17.3949 2.20828 16.9894 1.80199V1.80199ZM6.68945 1.17188H13.3301V2.34375H6.68945V1.17188ZM16.4305 17.8526C16.4298 18.3905 15.9922 18.8281 15.4549 18.8281H4.52899C4.2682 18.8281 4.02309 18.7264 3.83879 18.5417C3.65449 18.357 3.55317 18.1115 3.55344 17.8505L3.56949 3.31926C3.57008 2.78133 4.0077 2.34375 4.54504 2.34375H5.51758V2.53906C5.51758 3.07754 5.95567 3.51562 6.49414 3.51562H13.5254C14.0639 3.51562 14.502 3.07754 14.502 2.53906V2.34375H15.471C15.7318 2.34375 15.9769 2.44547 16.1612 2.63016C16.3455 2.81484 16.4469 3.06035 16.4466 3.32137L16.4305 17.8526Z" fill="#3D8BFD"/>
<path d="M10.1992 7.8125H14.3621C14.6857 7.8125 14.9481 7.55016 14.9481 7.22656C14.9481 6.90297 14.6857 6.64062 14.3621 6.64062H10.1992C9.87562 6.64062 9.61328 6.90297 9.61328 7.22656C9.61328 7.55016 9.87562 7.8125 10.1992 7.8125V7.8125Z" fill="#3D8BFD"/>
<path d="M10.1992 11.7188H14.3621C14.6857 11.7188 14.9481 11.4564 14.9481 11.1328C14.9481 10.8092 14.6857 10.5469 14.3621 10.5469H10.1992C9.87562 10.5469 9.61328 10.8092 9.61328 11.1328C9.61328 11.4564 9.87562 11.7188 10.1992 11.7188V11.7188Z" fill="#3D8BFD"/>
<path d="M14.3789 14.4531H10.1992C9.87562 14.4531 9.61328 14.7155 9.61328 15.0391C9.61328 15.3627 9.87562 15.625 10.1992 15.625H14.3789C14.7025 15.625 14.9648 15.3627 14.9648 15.0391C14.9648 14.7155 14.7025 14.4531 14.3789 14.4531Z" fill="#3D8BFD"/>
<path d="M7.70525 5.63112L6.354 6.98237L6.03541 6.66374C5.80658 6.43491 5.43561 6.43491 5.20678 6.66374C4.97795 6.89253 4.97795 7.26354 5.20678 7.49237L5.93971 8.22534C6.04959 8.33522 6.19861 8.39698 6.35404 8.39698C6.50943 8.39698 6.65846 8.33526 6.76834 8.22534L8.53393 6.45979C8.76275 6.231 8.76275 5.85999 8.53393 5.63116C8.3051 5.40229 7.93412 5.40229 7.70525 5.63112V5.63112Z" fill="#3D8BFD"/>
<path d="M7.70525 9.8357L6.354 11.1869L6.03541 10.8684C5.80658 10.6395 5.43561 10.6395 5.20678 10.8684C4.97795 11.0971 4.97795 11.4681 5.20678 11.697L5.93971 12.43C6.04959 12.5398 6.19861 12.6016 6.35404 12.6016C6.50943 12.6016 6.6585 12.5399 6.76834 12.43L8.53393 10.6644C8.76275 10.4356 8.76275 10.0646 8.53393 9.83573C8.3051 9.60691 7.93408 9.60691 7.70525 9.8357V9.8357Z" fill="#3D8BFD"/>
<path d="M7.70525 13.7419L6.354 15.0932L6.03541 14.7746C5.80658 14.5458 5.43561 14.5458 5.20678 14.7746C4.97795 15.0034 4.97795 15.3744 5.20678 15.6032L5.93971 16.3362C6.04959 16.4461 6.19861 16.5078 6.35404 16.5078C6.50943 16.5078 6.6585 16.4461 6.76834 16.3362L8.53393 14.5706C8.76275 14.3418 8.76275 13.9708 8.53393 13.742C8.3051 13.5132 7.93408 13.5132 7.70525 13.7419V13.7419Z" fill="#3D8BFD"/>
</svg>
