<svg width="32" height="32" viewBox="0 0 32 32" fill="none" xmlns="http://www.w3.org/2000/svg">
<g clip-path="url(#clip0_766_10752)">
<path d="M20.0834 11.5935C19.6695 11.5935 19.334 11.929 19.334 12.3429V26.5068C19.334 26.9204 19.6695 27.2562 20.0834 27.2562C20.4974 27.2562 20.8328 26.9204 20.8328 26.5068V12.3429C20.8328 11.929 20.4974 11.5935 20.0834 11.5935Z" fill="#3D8BFD"/>
<path d="M11.2404 11.5935C10.8265 11.5935 10.491 11.929 10.491 12.3429V26.5068C10.491 26.9204 10.8265 27.2562 11.2404 27.2562C11.6543 27.2562 11.9898 26.9204 11.9898 26.5068V12.3429C11.9898 11.929 11.6543 11.5935 11.2404 11.5935Z" fill="#3D8BFD"/>
<path d="M4.7952 9.52622V27.9902C4.7952 29.0815 5.19538 30.1064 5.89444 30.8417C6.59028 31.5791 7.55866 31.9978 8.57212 31.9995H22.7512C23.765 31.9978 24.7334 31.5791 25.4289 30.8417C26.128 30.1064 26.5282 29.0815 26.5282 27.9902V9.52622C27.9178 9.15737 28.8183 7.81487 28.6324 6.38894C28.4462 4.9633 27.2316 3.89685 25.7937 3.89655H21.9567V2.95979C21.9611 2.17203 21.6497 1.41559 21.092 0.859092C20.5343 0.302888 19.7767 -0.00683008 18.989 -0.000389815H12.3344C11.5466 -0.00683008 10.789 0.302888 10.2314 0.859092C9.6737 1.41559 9.36222 2.17203 9.36662 2.95979V3.89655H5.52968C4.09175 3.89685 2.87717 4.9633 2.69099 6.38894C2.5051 7.81487 3.40557 9.15737 4.7952 9.52622ZM22.7512 30.5007H8.57212C7.2908 30.5007 6.29403 29.4 6.29403 27.9902V9.59209H25.0293V27.9902C25.0293 29.4 24.0326 30.5007 22.7512 30.5007ZM10.8654 2.95979C10.8605 2.56957 11.0139 2.19398 11.2908 1.91852C11.5674 1.64305 11.9439 1.4917 12.3344 1.49843H18.989C19.3795 1.4917 19.7559 1.64305 20.0326 1.91852C20.3095 2.19369 20.4629 2.56957 20.4579 2.95979V3.89655H10.8654V2.95979ZM5.52968 5.39538H25.7937C26.5387 5.39538 27.1426 5.9993 27.1426 6.74432C27.1426 7.48934 26.5387 8.09326 25.7937 8.09326H5.52968C4.78466 8.09326 4.18074 7.48934 4.18074 6.74432C4.18074 5.9993 4.78466 5.39538 5.52968 5.39538Z" fill="#3D8BFD"/>
<path d="M15.6619 11.5935C15.248 11.5935 14.9125 11.929 14.9125 12.3429V26.5068C14.9125 26.9204 15.248 27.2562 15.6619 27.2562C16.0759 27.2562 16.4113 26.9204 16.4113 26.5068V12.3429C16.4113 11.929 16.0759 11.5935 15.6619 11.5935Z" fill="#3D8BFD"/>
</g>
<defs>
<clipPath id="clip0_766_10752">
<rect width="32" height="32" fill="white"/>
</clipPath>
</defs>
</svg>
