<svg width="20" height="20" viewBox="0 0 20 20" fill="none" xmlns="http://www.w3.org/2000/svg">
<g clip-path="url(#clip0_700_7364)">
<path d="M19.3335 18.114H7.33342C6.96542 18.114 6.66675 17.8153 6.66675 17.4473C6.66675 17.0793 6.96542 16.7807 7.33342 16.7807H19.3335C19.7016 16.7807 20.0002 17.0793 20.0002 17.4473C20.0002 17.8153 19.7016 18.114 19.3335 18.114Z" fill="#3D8BFD"/>
<path d="M0.666489 18.114C0.491357 18.114 0.321596 18.0457 0.195293 17.9185C0.031717 17.755 -0.0348527 17.5194 0.0175567 17.2945L0.98648 13.1833C1.01496 13.0625 1.07616 12.9522 1.16422 12.8651L13.4212 0.60813C14.1751 -0.146598 15.4941 -0.148388 16.2497 0.60813L17.5067 1.86498C17.8844 2.24275 18.0925 2.74503 18.0925 3.27922C18.0925 3.81357 17.8844 4.31667 17.5067 4.69346L5.24955 16.9496C5.16165 17.0377 5.0513 17.099 4.93135 17.1273L0.820137 18.0963C0.768704 18.1088 0.717108 18.114 0.666489 18.114ZM2.24073 13.6732L1.5625 16.5513L4.44078 15.8731L16.5635 3.75042C16.6898 3.62411 16.7591 3.45712 16.7591 3.27922C16.7591 3.10148 16.6898 2.93351 16.5635 2.80819L15.3066 1.55036C15.055 1.29873 14.615 1.29873 14.3644 1.55036L2.24073 13.6732ZM4.77754 16.4786H4.78649H4.77754Z" fill="#3D8BFD"/>
<path d="M14.3455 7.57714C14.1749 7.57714 14.0042 7.51219 13.8745 7.3815L10.7312 4.2384C10.4708 3.97798 10.4708 3.55577 10.7312 3.29535C10.9918 3.03477 11.414 3.03477 11.6744 3.29535L14.8175 6.43845C15.0779 6.69887 15.0779 7.12108 14.8175 7.3815C14.6868 7.51219 14.5162 7.57714 14.3455 7.57714Z" fill="#3D8BFD"/>
</g>
<defs>
<clipPath id="clip0_700_7364">
<rect width="20" height="20" fill="white"/>
</clipPath>
</defs>
</svg>
