<svg width="32" height="32" viewBox="0 0 32 32" fill="none" xmlns="http://www.w3.org/2000/svg">
<path d="M2.66667 12.8988V26.6667H5.33333V12.8988H2.66667ZM6.66667 30.6667H25.3333V28H6.66667V30.6667ZM29.3333 26.6667V12.8988H26.6667V26.6667H29.3333ZM27.7142 9.68458L18.3809 2.77101L16.7936 4.91382L26.127 11.8274L27.7142 9.68458ZM13.6191 2.77101L4.28576 9.68459L5.87303 11.8274L15.2064 4.91382L13.6191 2.77101ZM18.3809 2.77101C16.9665 1.72331 15.0335 1.72331 13.6191 2.77101L15.2064 4.91382C15.6778 4.56459 16.3222 4.56459 16.7936 4.91382L18.3809 2.77101ZM29.3333 12.8988C29.3333 11.6314 28.7327 10.439 27.7142 9.68458L26.127 11.8274C26.4664 12.0789 26.6667 12.4763 26.6667 12.8988H29.3333ZM25.3333 30.6667C27.5425 30.6667 29.3333 28.8758 29.3333 26.6667H26.6667C26.6667 27.403 26.0697 28 25.3333 28V30.6667ZM2.66667 26.6667C2.66667 28.8758 4.45753 30.6667 6.66667 30.6667V28C5.93029 28 5.33333 27.403 5.33333 26.6667H2.66667ZM5.33333 12.8988C5.33333 12.4763 5.53355 12.0789 5.87303 11.8274L4.28576 9.68459C3.26732 10.439 2.66667 11.6314 2.66667 12.8988H5.33333Z" fill="white"/>
<path d="M10.0002 29.3333C10.0002 30.0697 10.5971 30.6667 11.3335 30.6667C12.0699 30.6667 12.6668 30.0697 12.6668 29.3333H10.0002ZM19.3335 29.3333C19.3335 30.0697 19.9304 30.6667 20.6668 30.6667C21.4032 30.6667 22.0002 30.0697 22.0002 29.3333H19.3335ZM12.6668 29.3333V20H10.0002V29.3333H12.6668ZM13.3335 19.3333H18.6668V16.6667H13.3335V19.3333ZM19.3335 20V29.3333H22.0002V20H19.3335ZM18.6668 19.3333C19.035 19.3333 19.3335 19.6318 19.3335 20H22.0002C22.0002 18.1591 20.5078 16.6667 18.6668 16.6667V19.3333ZM12.6668 20C12.6668 19.6318 12.9653 19.3333 13.3335 19.3333V16.6667C11.4925 16.6667 10.0002 18.159 10.0002 20H12.6668Z" fill="white"/>
</svg>
