<svg width="20" height="20" viewBox="0 0 20 20" fill="none" xmlns="http://www.w3.org/2000/svg">
<path d="M18.4059 4.55626L14.9773 0.80626C14.9239 0.748335 14.8606 0.702506 14.7909 0.671403C14.7213 0.640301 14.6468 0.624535 14.5716 0.62501H3.143C2.68834 0.62501 2.2523 0.822554 1.93081 1.17419C1.60932 1.52582 1.42871 2.00273 1.42871 2.50001V17.5C1.42871 17.9973 1.60932 18.4742 1.93081 18.8258C2.2523 19.1775 2.68834 19.375 3.143 19.375H16.8573C17.3119 19.375 17.748 19.1775 18.0695 18.8258C18.391 18.4742 18.5716 17.9973 18.5716 17.5V5.00001C18.572 4.91776 18.5576 4.83622 18.5292 4.76007C18.5007 4.68392 18.4588 4.61466 18.4059 4.55626ZM12.2859 1.87501V4.55358C12.2859 4.75083 12.126 4.91073 11.9287 4.91073H8.07157C7.87432 4.91073 7.71443 4.75083 7.71443 4.55358V1.87501H12.2859ZM5.42871 18.125V13.75C5.42871 13.5843 5.48891 13.4253 5.59608 13.3081C5.70324 13.1909 5.84859 13.125 6.00014 13.125H14.0001C14.1517 13.125 14.297 13.1909 14.4042 13.3081C14.5114 13.4253 14.5716 13.5843 14.5716 13.75V18.125H5.42871ZM17.4287 17.5C17.4287 17.6658 17.3685 17.8247 17.2613 17.942C17.1542 18.0592 17.0088 18.125 16.8573 18.125H15.7144V13.75C15.7144 13.2527 15.5338 12.7758 15.2123 12.4242C14.8908 12.0726 14.4548 11.875 14.0001 11.875H6.00014C5.54548 11.875 5.10945 12.0726 4.78796 12.4242C4.46647 12.7758 4.28585 13.2527 4.28585 13.75V18.125H3.143C2.99144 18.125 2.8461 18.0592 2.73894 17.942C2.63177 17.8247 2.57157 17.6658 2.57157 17.5V2.50001C2.57157 2.33425 2.63177 2.17528 2.73894 2.05807C2.8461 1.94086 2.99144 1.87501 3.143 1.87501H6.57157V4.91073C6.57157 5.24225 6.69198 5.56019 6.9063 5.79461C7.12063 6.02903 7.41132 6.16073 7.71443 6.16073H12.2859C12.589 6.16073 12.8796 6.02903 13.094 5.79461C13.3083 5.56019 13.4287 5.24225 13.4287 4.91073V1.87501H14.3373L17.4287 5.25626V17.5Z" fill="#20C997"/>
</svg>
