<svg width="180" height="179" viewBox="0 0 180 179" fill="none" xmlns="http://www.w3.org/2000/svg">
<path d="M179.2 28.385V151.035C179.191 158.425 176.252 165.511 171.026 170.736C165.8 175.962 158.715 178.902 151.325 178.91H28.6748C21.2844 178.902 14.1991 175.962 8.97337 170.736C3.74759 165.511 0.808105 158.425 0.799805 151.035L0.799805 133.613C0.799805 131.395 1.68085 129.268 3.24912 127.7C4.8174 126.132 6.94443 125.251 9.1623 125.251C11.3802 125.251 13.5072 126.132 15.0755 127.7C16.6438 129.268 17.5248 131.395 17.5248 133.613V151.035C17.528 153.991 18.7038 156.825 20.7941 158.916C22.8845 161.006 25.7186 162.182 28.6748 162.185H151.325C154.281 162.182 157.115 161.006 159.206 158.916C161.296 156.825 162.472 153.991 162.475 151.035V28.385C162.472 25.4288 161.296 22.5947 159.205 20.5043C157.115 18.414 154.281 17.2382 151.325 17.235H28.6748C25.7187 17.2383 22.8845 18.4141 20.7942 20.5044C18.7039 22.5947 17.5281 25.4289 17.5248 28.385V45.8069C17.5248 48.0248 16.6438 50.1518 15.0755 51.7201C13.5072 53.2883 11.3802 54.1694 9.1623 54.1694C6.94443 54.1694 4.8174 53.2883 3.24912 51.7201C1.68085 50.1518 0.799805 48.0248 0.799805 45.8069L0.799805 28.385C0.808197 20.9947 3.74771 13.9094 8.97347 8.68368C14.1992 3.45792 21.2845 0.518402 28.6748 0.51001L151.325 0.51001C158.715 0.51831 165.8 3.4578 171.026 8.68358C176.252 13.9094 179.191 20.9946 179.2 28.385ZM0.799805 89.71C0.799805 91.9279 1.68085 94.0549 3.24912 95.6232C4.8174 97.1915 6.94443 98.0725 9.1623 98.0725H80.5697L63.3569 115.285C62.5803 116.062 61.9643 116.984 61.5441 117.998C61.1238 119.013 60.9075 120.1 60.9074 121.199C60.9074 123.416 61.7884 125.543 63.3567 127.112C64.925 128.68 67.052 129.561 69.2699 129.561C71.4878 129.561 73.6149 128.68 75.1832 127.112L106.672 95.6233C107.448 94.8468 108.064 93.9249 108.485 92.9103C108.905 91.8957 109.121 90.8082 109.121 89.71C109.121 88.6118 108.905 87.5243 108.485 86.5097C108.064 85.4951 107.448 84.5732 106.672 83.7967L75.1832 52.308C73.6149 50.7397 71.4878 49.8587 69.2699 49.8587C67.0519 49.8587 64.9248 50.7397 63.3565 52.308C61.7882 53.8763 60.9071 56.0034 60.9071 58.2214C60.9071 60.4393 61.7882 62.5664 63.3565 64.1347L80.5693 81.3475H9.1623C6.94443 81.3475 4.8174 82.2286 3.24912 83.7968C1.68085 85.3651 0.799805 87.4921 0.799805 89.71H0.799805Z" fill="#0D6EFD"/>
</svg>
