<svg width="24" height="24" viewBox="0 0 24 24" fill="none" xmlns="http://www.w3.org/2000/svg">
<g clip-path="url(#clip0_555_7219)">
<path d="M15.0005 9.25734C15.0005 9.22303 15.0282 9.19528 15.0625 9.19528C15.0969 9.19528 15.1246 9.22303 15.1246 9.25734V19.8803C15.1246 19.9145 15.0967 19.9423 15.0625 19.9423C15.0284 19.9423 15.0005 19.9145 15.0005 19.8803V9.25734Z" fill="white" stroke="white"/>
<path d="M8.36816 9.25734C8.36816 9.22303 8.39592 9.19528 8.43022 9.19528C8.46453 9.19528 8.49228 9.22303 8.49228 9.25734V19.8803C8.49228 19.9145 8.4644 19.9423 8.43022 19.9423C8.39604 19.9423 8.36816 19.9145 8.36816 19.8803V9.25734Z" fill="white" stroke="white"/>
<path d="M4.09634 6.76019V7.14479V20.9927C4.09634 21.691 4.35256 22.334 4.78315 22.7869L4.78442 22.7883C5.21206 23.2414 5.80715 23.4987 6.4299 23.4998H17.0625C17.6855 23.4987 18.2805 23.2414 18.7079 22.7883L18.7092 22.7869C19.1398 22.334 19.3961 21.691 19.3961 20.9927V7.14479V6.76019L19.7678 6.66152C20.5672 6.44933 21.0853 5.67701 20.9784 4.85657C20.8713 4.03637 20.1726 3.42276 19.3452 3.42254C19.3452 3.42254 19.3451 3.42254 19.3451 3.42254H16.4675H15.9675V2.92254V2.21996V2.21718H15.9675C15.9701 1.76018 15.7894 1.32131 15.4657 0.998366C15.1422 0.675733 14.7027 0.496077 14.2457 0.499813L14.2417 0.499846V0.49983H9.25074H9.24665L9.24665 0.499813C8.7897 0.496077 8.35018 0.675733 8.02665 0.998366L4.09634 6.76019ZM4.09634 6.76019L3.72461 6.66152M4.09634 6.76019L3.72461 6.66152M3.72461 6.66152C2.92519 6.44933 2.40707 5.67701 2.51397 4.85657L3.72461 6.66152ZM7.52491 2.21996H7.5249V2.92254V3.42254H7.0249H4.1473C4.14727 3.42254 4.14724 3.42254 4.1472 3.42254C3.31988 3.42276 2.62115 4.03631 2.51399 4.85646L7.52491 2.21996ZM7.52491 2.21996L7.52489 2.21718M7.52491 2.21996L7.52489 2.21718M7.52489 2.21718C7.52235 1.76022 7.70299 1.32139 8.02655 0.998459L7.52489 2.21718ZM15.8434 3.42254H15.3434H8.14902H7.64902V2.92254V2.22286C7.64451 1.79616 7.81263 1.3858 8.11523 1.08471C8.41765 0.783567 8.82856 0.617868 9.25464 0.623948H14.2378C14.6638 0.617869 15.0747 0.783537 15.3771 1.08463M15.8434 3.42254L15.3771 1.08463M15.8434 3.42254V2.92254V2.22282V3.42254ZM15.3771 1.08463C15.377 1.08453 15.3769 1.08443 15.3768 1.08433L15.0244 1.43901L15.3772 1.08471L15.3771 1.08463ZM16.4675 2.42254V2.21996L16.9675 2.92254H16.4675V2.42254ZM4.72046 6.69419H4.22046V7.19419V20.9927C4.22046 22.2791 5.14702 23.3756 6.42903 23.3756H17.0634C18.3454 23.3756 19.2719 22.2791 19.2719 20.9927V7.19419V6.69419H18.7719H4.72046ZM19.3452 3.54666H4.1472C3.31229 3.54666 2.6355 4.22345 2.6355 5.05836C2.6355 5.89327 3.31229 6.57007 4.1472 6.57007H19.3452C20.1801 6.57007 20.8569 5.89327 20.8569 5.05836C20.8569 4.22345 20.1801 3.54666 19.3452 3.54666Z" fill="white" stroke="white"/>
<path d="M11.6843 9.25734C11.6843 9.22303 11.7121 9.19528 11.7464 9.19528C11.7807 9.19528 11.8084 9.22303 11.8084 9.25734V19.8803C11.8084 19.9145 11.7806 19.9423 11.7464 19.9423C11.7122 19.9423 11.6843 19.9145 11.6843 19.8803V9.25734Z" fill="white" stroke="white"/>
</g>
<defs>
<clipPath id="clip0_555_7219">
<rect width="24" height="24" fill="white"/>
</clipPath>
</defs>
</svg>
