<svg width="180" height="181" viewBox="0 0 180 181" fill="none" xmlns="http://www.w3.org/2000/svg">
<g filter="url(#filter0_d_50_5816)">
<path d="M90.0002 8.72001C81.8041 8.72001 73.7921 11.1504 66.9774 15.7039C60.1626 20.2574 54.8511 26.7294 51.7146 34.3016C48.5781 41.8738 47.7575 50.206 49.3565 58.2446C50.9554 66.2831 54.9022 73.667 60.6977 79.4625C66.4932 85.258 73.8771 89.2048 81.9156 90.8037C89.9542 92.4027 98.2864 91.5821 105.859 88.4456C113.431 85.3091 119.903 79.9976 124.456 73.1828C129.01 66.3681 131.44 58.3561 131.44 50.16C131.44 39.1694 127.074 28.629 119.303 20.8575C111.531 13.086 100.991 8.72001 90.0002 8.72001ZM90.0002 77.84C84.5256 77.84 79.174 76.2166 74.622 73.1751C70.0701 70.1336 66.5222 65.8105 64.4272 60.7527C62.3322 55.6948 61.784 50.1293 62.8521 44.7599C63.9201 39.3905 66.5564 34.4584 70.4275 30.5873C74.2986 26.7162 79.2307 24.0799 84.6001 23.0119C89.9695 21.9438 95.535 22.492 100.593 24.587C105.651 26.6821 109.974 30.2299 113.015 34.7818C116.057 39.3338 117.68 44.6854 117.68 50.16C117.68 53.795 116.964 57.3944 115.573 60.7527C114.182 64.111 112.143 67.1624 109.573 69.7327C107.003 72.3031 103.951 74.3419 100.593 75.733C97.2346 77.124 93.6352 77.84 90.0002 77.84Z" fill="#0D6EFD" stroke="#0D6EFD" stroke-width="2.24"/>
<path d="M119.78 100.88H119.779L60.2207 100.88L60.2194 100.88C46.4383 100.896 33.2262 106.377 23.4815 116.122C13.7368 125.866 8.25544 139.078 8.23986 152.86V152.861C8.23986 158 10.2816 162.93 13.9159 166.564C17.5502 170.198 22.4794 172.24 27.6191 172.24H152.381C157.52 172.24 162.45 170.198 166.084 166.564C169.718 162.93 171.76 158 171.76 152.861V152.86C171.744 139.078 166.263 125.866 156.518 116.122C146.774 106.377 133.561 100.896 119.78 100.88ZM152.381 158.48H27.6191C26.1288 158.48 24.6995 157.888 23.6457 156.834C22.5919 155.78 21.9999 154.351 21.9999 152.861C21.9999 142.724 26.0267 133.002 33.1945 125.835C40.3623 118.667 50.0839 114.64 60.2207 114.64H119.779C129.916 114.64 139.637 118.667 146.805 125.835C153.973 133.002 158 142.724 158 152.861C158 154.351 157.408 155.78 156.354 156.834C155.3 157.888 153.871 158.48 152.381 158.48Z" fill="#0D6EFD" stroke="#0D6EFD" stroke-width="2.24"/>
</g>
<defs>
<filter id="filter0_d_50_5816" x="2.63963" y="5.36001" width="174.72" height="174.72" filterUnits="userSpaceOnUse" color-interpolation-filters="sRGB">
<feFlood flood-opacity="0" result="BackgroundImageFix"/>
<feColorMatrix in="SourceAlpha" type="matrix" values="0 0 0 0 0 0 0 0 0 0 0 0 0 0 0 0 0 0 127 0" result="hardAlpha"/>
<feOffset dy="2.24"/>
<feGaussianBlur stdDeviation="2.24"/>
<feComposite in2="hardAlpha" operator="out"/>
<feColorMatrix type="matrix" values="0 0 0 0 0 0 0 0 0 0 0 0 0 0 0 0 0 0 0.2 0"/>
<feBlend mode="normal" in2="BackgroundImageFix" result="effect1_dropShadow_50_5816"/>
<feBlend mode="normal" in="SourceGraphic" in2="effect1_dropShadow_50_5816" result="shape"/>
</filter>
</defs>
</svg>
