<?xml version="1.0" encoding="utf-8"?>
<!-- Generator: Adobe Illustrator 23.0.3, SVG Export Plug-In . SVG Version: 6.00 Build 0)  -->
<svg version="1.1" id="Capa_1" xmlns="http://www.w3.org/2000/svg" xmlns:xlink="http://www.w3.org/1999/xlink" x="0px" y="0px"
	 viewBox="0 0 78.8 106" style="enable-background:new 0 0 78.8 106;" xml:space="preserve">
<style type="text/css">
	.st0{fill:#CCCCCC;}
</style>
<g>
	<path class="st0" d="M0,0h41.4c23.3,0,33.7,12.3,33.7,27.1c0,13.4-7.3,19.1-13,21.5c7.8,3.3,16.7,11,16.7,25.7
		c0,20.5-15.4,32.2-38.1,32.2H0V0z M37.7,41.9c11.2,0,16.4-3.6,16.4-12.6c0-8.8-6-12.7-15.3-12.7H21.3v25.4H37.7z M21.3,90.1h17.7
		c9.9,0,17.6-4.7,17.6-15.8c0-10.4-6.1-16-19.2-16H21.3V90.1z"/>
</g>
</svg>
