<svg width="160" height="160" viewBox="0 0 160 160" fill="none" xmlns="http://www.w3.org/2000/svg">
<g clip-path="url(#clip0_736_7561)">
<path d="M74.3721 108.744C72.5631 108.744 70.9549 107.94 69.9499 106.734L39.5981 73.769C37.387 71.3571 37.5882 67.5378 40.0001 65.3267C42.412 63.1156 46.2313 63.3169 48.4424 65.7288L74.5729 94.0704L146.935 21.9096C149.347 19.4977 153.166 19.4977 155.377 21.9096C157.588 24.3215 157.789 28.1408 155.377 30.3519L78.5934 106.935C77.5881 108.141 75.9803 108.744 74.3721 108.744Z" fill="#20C997"/>
<path d="M80.0002 160C35.9798 160 0 124.02 0 80.0002C0 35.9802 35.9798 0 80.0002 0C83.4174 0 86.0302 2.61313 86.0302 6.02998C86.0302 9.44682 83.417 12.06 80.0002 12.06C42.613 12.06 12.0603 42.6127 12.0603 79.9998C12.0603 117.387 42.613 147.94 80.0002 147.94C117.387 147.94 147.94 117.387 147.94 79.9998C147.94 76.5826 150.553 73.9698 153.97 73.9698C157.387 73.9698 160 76.583 160 79.9998C160 124.02 124.02 160 80.0002 160Z" fill="#0D6EFD"/>
</g>
<defs>
<clipPath id="clip0_736_7561">
<rect width="160" height="160" fill="white"/>
</clipPath>
</defs>
</svg>
