<svg width="20" height="20" viewBox="0 0 20 20" fill="none" xmlns="http://www.w3.org/2000/svg">
<path d="M15.8333 0.833374H4.16669C3.83528 0.833736 3.51755 0.965548 3.2832 1.19989C3.04886 1.43423 2.91705 1.75196 2.91669 2.08337V18.4868C2.91667 18.5933 2.94389 18.6981 2.99577 18.7912C3.04764 18.8842 3.12245 18.9625 3.21308 19.0185C3.30371 19.0745 3.40715 19.1064 3.51359 19.1112C3.62003 19.116 3.72592 19.0935 3.82122 19.0459L4.90661 18.5029C4.93557 18.4884 4.96751 18.4809 4.99989 18.4809C5.03227 18.4809 5.06421 18.4884 5.09317 18.5029L6.20095 19.0569C6.34571 19.1288 6.50513 19.1661 6.66675 19.1661C6.82836 19.1661 6.98779 19.1288 7.13255 19.0569L8.23993 18.5029C8.26889 18.4884 8.30083 18.4809 8.33321 18.4809C8.3656 18.4809 8.39753 18.4884 8.42649 18.5029L9.53427 19.0569C9.67903 19.1288 9.83845 19.1661 10.0001 19.1661C10.1617 19.1661 10.3211 19.1288 10.4659 19.0569L11.5736 18.5029C11.6025 18.4885 11.6343 18.4809 11.6666 18.4809C11.6989 18.4809 11.7307 18.4885 11.7596 18.5029L12.8676 19.0569C13.0123 19.1288 13.1718 19.1661 13.3334 19.1661C13.495 19.1661 13.6544 19.1288 13.7992 19.0569L14.9066 18.5029C14.9355 18.4884 14.9675 18.4809 14.9999 18.4809C15.0322 18.4809 15.0642 18.4884 15.0931 18.5029L16.1791 19.0459C16.2744 19.0935 16.3802 19.1159 16.4866 19.1111C16.593 19.1063 16.6965 19.0744 16.7871 19.0184C16.8777 18.9624 16.9524 18.8841 17.0043 18.7911C17.0562 18.6981 17.0834 18.5933 17.0834 18.4868V2.08337C17.083 1.75195 16.9512 1.43421 16.7169 1.19986C16.4825 0.965518 16.1648 0.833715 15.8333 0.833374ZM16.25 18.1497L15.4657 17.7574C15.321 17.6855 15.1615 17.6481 14.9999 17.6481C14.8383 17.6481 14.6789 17.6855 14.5341 17.7574L13.4267 18.3114C13.3977 18.3258 13.3658 18.3333 13.3334 18.3333C13.3011 18.3333 13.2692 18.3258 13.2402 18.3114L12.1322 17.7574C11.9874 17.6855 11.828 17.6481 11.6664 17.6481C11.5048 17.6481 11.3454 17.6856 11.2008 17.7576L10.0934 18.3114C10.0644 18.3258 10.0325 18.3333 10.0001 18.3333C9.96772 18.3333 9.93579 18.3258 9.90681 18.3114L8.79903 17.7574C8.65427 17.6855 8.49485 17.6481 8.33323 17.6481C8.17162 17.6481 8.01219 17.6855 7.86743 17.7574L6.76005 18.3114C6.73106 18.3258 6.69913 18.3333 6.66677 18.3333C6.6344 18.3333 6.60247 18.3258 6.57348 18.3114L5.46571 17.7574C5.32095 17.6855 5.16153 17.6481 4.99991 17.6481C4.83829 17.6481 4.67887 17.6855 4.53411 17.7574L3.75001 18.1497V2.08337C3.75013 1.9729 3.79407 1.86699 3.87219 1.78887C3.9503 1.71076 4.05621 1.66682 4.16669 1.66669H15.8333C15.9438 1.66682 16.0497 1.71076 16.1278 1.78887C16.2059 1.86699 16.2499 1.9729 16.25 2.08337V18.1497Z" fill="#0D6EFD" stroke="#0D6EFD" stroke-width="0.3"/>
<path d="M9.5889 8.20185C9.68003 8.23642 9.76284 8.26767 9.83183 8.2981C9.92339 8.33849 10.0292 8.37907 10.1425 8.42239C10.7909 8.67009 11.2499 8.88435 11.2499 9.38724C11.2499 9.64591 11.0218 9.93513 10.6826 10.1067C10.0637 10.4199 9.27824 10.3003 8.57999 9.78692C8.53592 9.7544 8.48587 9.73089 8.43271 9.71773C8.37954 9.70457 8.3243 9.70202 8.27015 9.71024C8.21599 9.71845 8.16399 9.73726 8.11712 9.76559C8.07024 9.79393 8.02942 9.83122 7.99697 9.87535C7.96453 9.91948 7.9411 9.96957 7.92804 10.0228C7.91498 10.076 7.91253 10.1312 7.92084 10.1853C7.92915 10.2395 7.94805 10.2914 7.97647 10.3383C8.00488 10.3851 8.04225 10.4258 8.08644 10.4582C8.56195 10.808 9.07558 11.0175 9.58324 11.0861V11.6667C9.5843 11.7765 9.62867 11.8815 9.70669 11.9588C9.78471 12.036 9.89008 12.0794 9.9999 12.0794C10.1097 12.0794 10.2151 12.036 10.2931 11.9588C10.3711 11.8815 10.4155 11.7765 10.4166 11.6667V11.0652C10.6397 11.0241 10.8559 10.9519 11.0589 10.8506C11.6908 10.5308 12.0832 9.97013 12.0832 9.38735C12.0832 8.27173 11.0546 7.87876 10.44 7.64399C10.3409 7.60607 10.2481 7.57095 10.1682 7.53567C10.0882 7.5004 9.99116 7.46325 9.88476 7.42286C9.26367 7.18708 8.74992 6.95095 8.74992 6.4463C8.74992 6.18763 8.978 5.89841 9.31714 5.72681C9.93585 5.4138 10.7216 5.53333 11.4198 6.04665C11.4639 6.07906 11.5139 6.10246 11.5671 6.11552C11.6202 6.12859 11.6754 6.13106 11.7295 6.12279C11.7836 6.11453 11.8355 6.09569 11.8823 6.06735C11.9291 6.03902 11.9699 6.00174 12.0023 5.95765C12.0347 5.91355 12.0581 5.86351 12.0712 5.81037C12.0843 5.75724 12.0867 5.70205 12.0785 5.64795C12.0702 5.59386 12.0514 5.54193 12.023 5.49512C11.9947 5.4483 11.9574 5.40753 11.9133 5.37513C11.4378 5.02548 10.9241 4.81376 10.4165 4.74521V4.16681C10.417 4.11175 10.4067 4.05714 10.386 4.00612C10.3653 3.9551 10.3347 3.90869 10.2959 3.86957C10.2572 3.83045 10.2111 3.79939 10.1602 3.7782C10.1094 3.75701 10.0549 3.74609 9.99986 3.74609C9.9448 3.74609 9.89029 3.75701 9.83947 3.7782C9.78865 3.79939 9.74254 3.83045 9.7038 3.86957C9.66505 3.90869 9.63445 3.9551 9.61375 4.00612C9.59305 4.05714 9.58266 4.11175 9.5832 4.16681V4.76634C9.35999 4.80816 9.14377 4.88115 8.94089 4.98317C8.30898 5.3029 7.91652 5.86349 7.91652 6.4463C7.91656 7.56685 9.00441 7.97997 9.5889 8.20185Z" fill="#0D6EFD" stroke="#0D6EFD" stroke-width="0.3"/>
<path d="M13.3332 12.9168H6.66656C6.61151 12.9162 6.55689 12.9266 6.50587 12.9473C6.45485 12.968 6.40844 12.9986 6.36932 13.0374C6.3302 13.0761 6.29915 13.1222 6.27796 13.173C6.25676 13.2239 6.24585 13.2784 6.24585 13.3334C6.24585 13.3885 6.25676 13.443 6.27796 13.4938C6.29915 13.5446 6.3302 13.5907 6.36932 13.6295C6.40844 13.6682 6.45485 13.6988 6.50587 13.7195C6.55689 13.7402 6.61151 13.7506 6.66656 13.7501H13.3332C13.3883 13.7506 13.4429 13.7402 13.4939 13.7195C13.5449 13.6988 13.5913 13.6682 13.6304 13.6295C13.6696 13.5907 13.7006 13.5446 13.7218 13.4938C13.743 13.443 13.7539 13.3885 13.7539 13.3334C13.7539 13.2784 13.743 13.2239 13.7218 13.173C13.7006 13.1222 13.6696 13.0761 13.6304 13.0374C13.5913 12.9986 13.5449 12.968 13.4939 12.9473C13.4429 12.9266 13.3883 12.9162 13.3332 12.9168Z" fill="#0D6EFD" stroke="#0D6EFD" stroke-width="0.3"/>
<path d="M13.3332 14.5834H6.66656C6.61151 14.5829 6.55689 14.5932 6.50587 14.6139C6.45485 14.6346 6.40844 14.6653 6.36932 14.704C6.3302 14.7427 6.29915 14.7888 6.27796 14.8397C6.25676 14.8905 6.24585 14.945 6.24585 15.0001C6.24585 15.0551 6.25676 15.1096 6.27796 15.1604C6.29915 15.2113 6.3302 15.2574 6.36932 15.2961C6.40844 15.3349 6.45485 15.3655 6.50587 15.3862C6.55689 15.4069 6.61151 15.4172 6.66656 15.4167H13.3332C13.3883 15.4172 13.4429 15.4069 13.4939 15.3862C13.5449 15.3655 13.5913 15.3349 13.6304 15.2961C13.6696 15.2574 13.7006 15.2113 13.7218 15.1604C13.743 15.1096 13.7539 15.0551 13.7539 15.0001C13.7539 14.945 13.743 14.8905 13.7218 14.8397C13.7006 14.7888 13.6696 14.7427 13.6304 14.704C13.5913 14.6653 13.5449 14.6346 13.4939 14.6139C13.4429 14.5932 13.3883 14.5829 13.3332 14.5834Z" fill="#0D6EFD" stroke="#0D6EFD" stroke-width="0.3"/>
</svg>
