<svg width="32" height="32" viewBox="0 0 32 32" fill="none" xmlns="http://www.w3.org/2000/svg">
<g clip-path="url(#clip0_736_7330)">
<path d="M30.9335 28.9824H11.7333C11.1445 28.9824 10.6667 28.5045 10.6667 27.9157C10.6667 27.3269 11.1445 26.849 11.7333 26.849H30.9335C31.5223 26.849 32.0002 27.3269 32.0002 27.9157C32.0002 28.5045 31.5223 28.9824 30.9335 28.9824Z" fill="#3D8BFD"/>
<path d="M1.06638 28.9823C0.786172 28.9823 0.514554 28.8729 0.312469 28.6696C0.0507472 28.4078 -0.0557644 28.031 0.0280907 27.6711L1.57837 21.0932C1.62394 20.8999 1.72186 20.7234 1.86275 20.5841L21.4739 0.97291C22.6802 -0.234655 24.7906 -0.237519 25.9995 0.97291L28.0107 2.98387C28.6151 3.5883 28.9479 4.39196 28.9479 5.24665C28.9479 6.10161 28.6151 6.90657 28.0107 7.50944L8.39927 27.1193C8.25865 27.2602 8.08208 27.3583 7.89015 27.4037L1.31222 28.9539C1.22993 28.974 1.14737 28.9823 1.06638 28.9823ZM3.58516 21.877L2.49999 26.482L7.10525 25.3969L26.5016 6.00057C26.7036 5.79848 26.8146 5.53129 26.8146 5.24665C26.8146 4.96228 26.7036 4.69352 26.5016 4.493L24.4906 2.48048C24.088 2.07787 23.3841 2.07787 22.983 2.48048L3.58516 21.877ZM7.64406 26.3656H7.65838H7.64406Z" fill="#3D8BFD"/>
<path d="M22.9528 12.1233C22.6799 12.1233 22.4067 12.0194 22.1991 11.8102L17.1699 6.78129C16.7533 6.36461 16.7533 5.68909 17.1699 5.27242C17.5869 4.85548 18.2624 4.85548 18.6791 5.27242L23.708 10.3014C24.1247 10.718 24.1247 11.3936 23.708 11.8102C23.4989 12.0194 23.226 12.1233 22.9528 12.1233Z" fill="#3D8BFD"/>
</g>
<defs>
<clipPath id="clip0_736_7330">
<rect width="32" height="32" fill="white"/>
</clipPath>
</defs>
</svg>
