<svg width="20" height="20" viewBox="0 0 20 20" fill="none" xmlns="http://www.w3.org/2000/svg">
<g clip-path="url(#clip0_736_7587)">
<path d="M19.3333 18.1139H7.33318C6.96517 18.1139 6.6665 17.8153 6.6665 17.4473C6.6665 17.0793 6.96517 16.7806 7.33318 16.7806H19.3333C19.7013 16.7806 20 17.0793 20 17.4473C20 17.8153 19.7013 18.1139 19.3333 18.1139Z" fill="#3D8BFD"/>
<path d="M0.666489 18.114C0.491357 18.114 0.321596 18.0456 0.195293 17.9185C0.031717 17.7549 -0.0348527 17.5194 0.0175567 17.2945L0.98648 13.1833C1.01496 13.0625 1.07616 12.9521 1.16422 12.8651L13.4212 0.6081C14.1751 -0.146629 15.4941 -0.148419 16.2497 0.6081L17.5067 1.86495C17.8844 2.24272 18.0925 2.745 18.0925 3.27919C18.0925 3.81354 17.8844 4.31664 17.5067 4.69343L5.24955 16.9496C5.16165 17.0376 5.0513 17.099 4.93135 17.1273L0.820137 18.0962C0.768704 18.1088 0.717108 18.114 0.666489 18.114ZM2.24073 13.6732L1.5625 16.5513L4.44078 15.8731L16.5635 3.75039C16.6898 3.62408 16.7591 3.45709 16.7591 3.27919C16.7591 3.10145 16.6898 2.93348 16.5635 2.80816L15.3066 1.55033C15.055 1.2987 14.615 1.2987 14.3644 1.55033L2.24073 13.6732ZM4.77754 16.4785H4.78649H4.77754Z" fill="#3D8BFD"/>
<path d="M14.3457 7.577C14.1752 7.577 14.0044 7.51206 13.8747 7.38136L10.7314 4.23826C10.471 3.97784 10.471 3.55563 10.7314 3.29521C10.992 3.03463 11.4142 3.03463 11.6747 3.29521L14.8178 6.43831C15.0782 6.69873 15.0782 7.12094 14.8178 7.38136C14.6871 7.51206 14.5165 7.577 14.3457 7.577Z" fill="#3D8BFD"/>
</g>
<defs>
<clipPath id="clip0_736_7587">
<rect width="20" height="20" fill="white"/>
</clipPath>
</defs>
</svg>
