<svg width="32" height="32" viewBox="0 0 32 32" fill="none" xmlns="http://www.w3.org/2000/svg">
<path d="M19.277 12.3975C18.9386 12.3975 18.6643 12.6717 18.6643 13.0102V24.5904C18.6643 24.9286 18.9386 25.2031 19.277 25.2031C19.6154 25.2031 19.8897 24.9286 19.8897 24.5904V13.0102C19.8897 12.6717 19.6154 12.3975 19.277 12.3975Z" fill="#6C757D" stroke="#6C757D" stroke-width="0.571429"/>
<path d="M12.0465 12.3975C11.7081 12.3975 11.4338 12.6717 11.4338 13.0102V24.5904C11.4338 24.9286 11.7081 25.2031 12.0465 25.2031C12.385 25.2031 12.6593 24.9286 12.6593 24.5904V13.0102C12.6593 12.6717 12.385 12.3975 12.0465 12.3975Z" fill="#6C757D" stroke="#6C757D" stroke-width="0.571429"/>
<path d="M6.77706 10.7074V25.8033C6.77706 26.6955 7.10424 27.5334 7.67578 28.1347C8.24469 28.7376 9.03643 29.0798 9.86502 29.0813H21.4577C22.2865 29.0798 23.0783 28.7376 23.6469 28.1347C24.2185 27.5334 24.5457 26.6955 24.5457 25.8033V10.7074C25.6818 10.4058 26.418 9.30819 26.266 8.14237C26.1138 6.97678 25.1208 6.10487 23.9451 6.10463H20.8081V5.33874C20.8117 4.69468 20.5571 4.07622 20.1011 3.62124C19.6452 3.16649 19.0258 2.91327 18.3817 2.91854H12.941C12.297 2.91327 11.6775 3.16649 11.2216 3.62124C10.7657 4.07622 10.511 4.69468 10.5146 5.33874V6.10463H7.37756C6.20193 6.10487 5.20891 6.97678 5.05669 8.14237C4.90471 9.30819 5.64092 10.4058 6.77706 10.7074ZM21.4577 27.8558H9.86502C8.81743 27.8558 8.00248 26.9559 8.00248 25.8033V10.7612H23.3202V25.8033C23.3202 26.9559 22.5053 27.8558 21.4577 27.8558ZM11.74 5.33874C11.7359 5.0197 11.8614 4.71263 12.0878 4.48741C12.3139 4.26219 12.6217 4.13845 12.941 4.14396H18.3817C18.701 4.13845 19.0088 4.26219 19.2349 4.48741C19.4614 4.71239 19.5868 5.0197 19.5827 5.33874V6.10463H11.74V5.33874ZM7.37756 7.33005H23.9451C24.5543 7.33005 25.048 7.82381 25.048 8.43293C25.048 9.04205 24.5543 9.5358 23.9451 9.5358H7.37756C6.76845 9.5358 6.27469 9.04205 6.27469 8.43293C6.27469 7.82381 6.76845 7.33005 7.37756 7.33005Z" fill="#6C757D" stroke="#6C757D" stroke-width="0.571429"/>
<path d="M15.662 12.3975C15.3236 12.3975 15.0493 12.6717 15.0493 13.0102V24.5904C15.0493 24.9286 15.3236 25.2031 15.662 25.2031C16.0005 25.2031 16.2747 24.9286 16.2747 24.5904V13.0102C16.2747 12.6717 16.0005 12.3975 15.662 12.3975Z" fill="#6C757D" stroke="#6C757D" stroke-width="0.571429"/>
</svg>
