<svg width="28" height="28" viewBox="0 0 28 28" fill="none" xmlns="http://www.w3.org/2000/svg">
<path d="M25.768 6.37876L20.968 1.12876C20.8932 1.04767 20.8046 0.983509 20.7071 0.939965C20.6097 0.896421 20.5053 0.874349 20.4 0.875015H4.4C3.76348 0.875015 3.15303 1.15158 2.70294 1.64386C2.25286 2.13614 2 2.80382 2 3.50001V24.5C2 25.1962 2.25286 25.8639 2.70294 26.3562C3.15303 26.8485 3.76348 27.125 4.4 27.125H23.6C24.2365 27.125 24.847 26.8485 25.2971 26.3562C25.7471 25.8639 26 25.1962 26 24.5V7.00001C26.0006 6.88486 25.9804 6.7707 25.9406 6.6641C25.9008 6.55749 25.8421 6.46052 25.768 6.37876ZM17.2 2.62501V6.37502C17.2 6.65116 16.9761 6.87502 16.7 6.87502H11.3C11.0239 6.87502 10.8 6.65116 10.8 6.37502V2.62501H17.2ZM7.6 25.375V19.25C7.6 19.018 7.68429 18.7954 7.83431 18.6313C7.98434 18.4672 8.18783 18.375 8.4 18.375H19.6C19.8122 18.375 20.0157 18.4672 20.1657 18.6313C20.3157 18.7954 20.4 19.018 20.4 19.25V25.375H7.6ZM24.4 24.5C24.4 24.7321 24.3157 24.9546 24.1657 25.1187C24.0157 25.2828 23.8122 25.375 23.6 25.375H22V19.25C22 18.5538 21.7471 17.8861 21.2971 17.3939C20.847 16.9016 20.2365 16.625 19.6 16.625H8.4C7.76348 16.625 7.15303 16.9016 6.70294 17.3939C6.25286 17.8861 6 18.5538 6 19.25V25.375H4.4C4.18783 25.375 3.98434 25.2828 3.83431 25.1187C3.68429 24.9546 3.6 24.7321 3.6 24.5V3.50001C3.6 3.26795 3.68429 3.04539 3.83431 2.8813C3.98434 2.7172 4.18783 2.62501 4.4 2.62501H9.2V6.87502C9.2 7.33914 9.36857 7.78426 9.66863 8.11245C9.96869 8.44064 10.3757 8.62502 10.8 8.62502H17.2C17.6243 8.62502 18.0313 8.44064 18.3314 8.11245C18.6314 7.78426 18.8 7.33914 18.8 6.87502V2.62501H20.072L24.4 7.35876V24.5Z" fill="white"/>
</svg>
