<svg width="32" height="32" viewBox="0 0 32 32" fill="none" xmlns="http://www.w3.org/2000/svg">
<path d="M27.1831 2.88319C26.5343 2.23306 25.6716 1.875 24.7536 1.875H23.2031V1.5625C23.2031 0.700938 22.5022 0 21.6406 0H10.3906C9.52906 0 8.82813 0.700938 8.82813 1.5625V1.875H7.27206C5.38075 1.875 3.84031 3.41538 3.83819 5.30869L3.8125 28.5587C3.8115 29.4776 4.16819 30.3417 4.81688 30.9918C5.46563 31.6419 6.32844 32 7.24638 32H24.7279C26.6193 32 28.1597 30.4596 28.1618 28.5663L28.1875 5.31631C28.1886 4.39737 27.8318 3.53325 27.1831 2.88319ZM10.7031 1.875H21.3281V3.75H10.7031V1.875ZM26.2888 28.5642C26.2878 29.4249 25.5876 30.125 24.7279 30.125H7.24638C6.82913 30.125 6.43694 29.9622 6.14206 29.6667C5.84719 29.3712 5.68506 28.9784 5.6855 28.5608L5.71119 5.31081C5.71213 4.45012 6.41231 3.75 7.27206 3.75H8.82813V4.0625C8.82813 4.92406 9.52906 5.625 10.3906 5.625H21.6406C22.5022 5.625 23.2031 4.92406 23.2031 4.0625V3.75H24.7536C25.1709 3.75 25.5631 3.91275 25.8579 4.20825C26.1528 4.50375 26.315 4.89656 26.3145 5.31419L26.2888 28.5642Z" fill="#3D8BFD"/>
<path d="M16.3188 12.5H22.9795C23.4973 12.5 23.917 12.0803 23.917 11.5625C23.917 11.0447 23.4973 10.625 22.9795 10.625H16.3188C15.8011 10.625 15.3813 11.0447 15.3813 11.5625C15.3813 12.0803 15.8011 12.5 16.3188 12.5Z" fill="#3D8BFD"/>
<path d="M16.3188 18.75H22.9795C23.4973 18.75 23.917 18.3303 23.917 17.8125C23.917 17.2947 23.4973 16.875 22.9795 16.875H16.3188C15.8011 16.875 15.3813 17.2947 15.3813 17.8125C15.3813 18.3303 15.8011 18.75 16.3188 18.75Z" fill="#3D8BFD"/>
<path d="M23.0063 23.125H16.3188C15.8011 23.125 15.3813 23.5447 15.3813 24.0625C15.3813 24.5803 15.8011 25 16.3188 25H23.0063C23.5241 25 23.9438 24.5803 23.9438 24.0625C23.9438 23.5447 23.5242 23.125 23.0063 23.125Z" fill="#3D8BFD"/>
<path d="M12.3283 9.00982L10.1663 11.1718L9.65656 10.662C9.29043 10.2959 8.69687 10.2959 8.33075 10.662C7.96462 11.0281 7.96462 11.6217 8.33075 11.9878L9.50343 13.1606C9.67925 13.3364 9.91768 13.4352 10.1664 13.4352C10.415 13.4352 10.6534 13.3364 10.8292 13.1606L13.6542 10.3357C14.0203 9.96963 14.0203 9.376 13.6542 9.00988C13.2881 8.64369 12.6945 8.64369 12.3283 9.00982Z" fill="#3D8BFD"/>
<path d="M12.3283 15.7372L10.1663 17.8992L9.65656 17.3894C9.29043 17.0233 8.69687 17.0233 8.33075 17.3894C7.96462 17.7555 7.96462 18.3491 8.33075 18.7152L9.50343 19.888C9.67925 20.0638 9.91768 20.1626 10.1664 20.1626C10.415 20.1626 10.6535 20.0639 10.8292 19.888L13.6542 17.0631C14.0203 16.697 14.0203 16.1034 13.6542 15.7372C13.2881 15.3711 12.6944 15.3711 12.3283 15.7372Z" fill="#3D8BFD"/>
<path d="M12.3283 21.9872L10.1663 24.1492L9.65656 23.6394C9.29043 23.2733 8.69687 23.2733 8.33075 23.6394C7.96462 24.0055 7.96462 24.5991 8.33075 24.9652L9.50343 26.138C9.67925 26.3138 9.91768 26.4126 10.1664 26.4126C10.415 26.4126 10.6535 26.3139 10.8292 26.138L13.6542 23.3131C14.0203 22.947 14.0203 22.3534 13.6542 21.9872C13.2881 21.6211 12.6944 21.6211 12.3283 21.9872Z" fill="#3D8BFD"/>
</svg>
