<svg width="32" height="32" viewBox="0 0 32 32" fill="none" xmlns="http://www.w3.org/2000/svg">
<path d="M29.4491 7.29002L23.9634 1.29002C23.878 1.19734 23.7767 1.12401 23.6653 1.07425C23.5539 1.02448 23.4346 0.999256 23.3143 1.00002H5.02856C4.30111 1.00002 3.60346 1.31609 3.08907 1.8787C2.57468 2.44131 2.28571 3.20437 2.28571 4.00002V28C2.28571 28.7957 2.57468 29.5587 3.08907 30.1213C3.60346 30.6839 4.30111 31 5.02856 31H26.9714C27.6989 31 28.3965 30.6839 28.9109 30.1213C29.4253 29.5587 29.7143 28.7957 29.7143 28V8.00002C29.715 7.86841 29.6919 7.73795 29.6464 7.61611C29.6009 7.49427 29.5339 7.38346 29.4491 7.29002ZM19.6571 3.00002V7.28573C19.6571 7.60132 19.4013 7.85716 19.0857 7.85716H12.9143C12.5987 7.85716 12.3428 7.60132 12.3428 7.28573V3.00002H19.6571ZM8.68571 29V22C8.68571 21.7348 8.78203 21.4804 8.95349 21.2929C9.12496 21.1054 9.35751 21 9.59999 21H22.4C22.6425 21 22.875 21.1054 23.0465 21.2929C23.218 21.4804 23.3143 21.7348 23.3143 22V29H8.68571ZM27.8857 28C27.8857 28.2652 27.7894 28.5196 27.6179 28.7071C27.4465 28.8947 27.2139 29 26.9714 29H25.1428V22C25.1428 21.2044 24.8539 20.4413 24.3395 19.8787C23.8251 19.3161 23.1274 19 22.4 19H9.59999C8.87254 19 8.17488 19.3161 7.6605 19.8787C7.14611 20.4413 6.85713 21.2044 6.85713 22V29H5.02856C4.78608 29 4.55353 28.8947 4.38207 28.7071C4.2106 28.5196 4.11428 28.2652 4.11428 28V4.00002C4.11428 3.7348 4.2106 3.48045 4.38207 3.29291C4.55353 3.10537 4.78608 3.00002 5.02856 3.00002H10.5143V7.85716C10.5143 8.38759 10.7069 8.8963 11.0499 9.27137C11.3928 9.64645 11.8579 9.85716 12.3428 9.85716H19.6571C20.1421 9.85716 20.6072 9.64645 20.9501 9.27137C21.2931 8.8963 21.4857 8.38759 21.4857 7.85716V3.00002H22.9394L27.8857 8.41002V28Z" fill="#3D8BFD"/>
</svg>
