<svg width="24" height="24" viewBox="0 0 24 24" fill="none" xmlns="http://www.w3.org/2000/svg">
<path d="M19.3664 1.84828H18.4712V0.942454C18.4712 0.424903 18.0516 0.00537109 17.5341 0.00537109C17.0165 0.00537109 16.597 0.424903 16.597 0.942454V1.84828H7.40295V0.942454C7.40295 0.424903 6.98342 0.00537109 6.46587 0.00537109C5.94832 0.00537109 5.52879 0.424903 5.52879 0.942454V1.84828H4.63364C2.07864 1.84828 0 3.92692 0 6.48188V19.361C0 21.916 2.07864 23.9947 4.63364 23.9947H19.3664C21.9214 23.9947 24 21.916 24 19.361V6.48188C24 3.92692 21.9214 1.84828 19.3664 1.84828V1.84828ZM4.63364 3.72245H5.52879V5.54976C5.52879 6.06731 5.94832 6.48684 6.46587 6.48684C6.98342 6.48684 7.40295 6.06731 7.40295 5.54976V3.72245H16.597V5.54976C16.597 6.06731 17.0166 6.48684 17.5341 6.48684C18.0517 6.48684 18.4712 6.06731 18.4712 5.54976V3.72245H19.3664C20.8879 3.72245 22.1258 4.96034 22.1258 6.48188V7.37707H1.87417V6.48188C1.87417 4.96034 3.11205 3.72245 4.63364 3.72245V3.72245ZM19.3664 22.1205H4.63364C3.11205 22.1205 1.87417 20.8826 1.87417 19.361V9.25124H22.1258V19.361C22.1258 20.8826 20.8879 22.1205 19.3664 22.1205V22.1205ZM8.32443 12.9371C8.32443 13.4547 7.9049 13.8742 7.38735 13.8742H5.54444C5.02689 13.8742 4.60735 13.4547 4.60735 12.9371C4.60735 12.4196 5.02689 12 5.54444 12H7.38735C7.90485 12 8.32443 12.4196 8.32443 12.9371ZM19.3927 12.9371C19.3927 13.4547 18.9732 13.8742 18.4556 13.8742H16.6127C16.0951 13.8742 15.6756 13.4547 15.6756 12.9371C15.6756 12.4196 16.0951 12 16.6127 12H18.4556C18.9731 12 19.3927 12.4196 19.3927 12.9371V12.9371ZM13.8532 12.9371C13.8532 13.4547 13.4337 13.8742 12.9161 13.8742H11.0732C10.5557 13.8742 10.1361 13.4547 10.1361 12.9371C10.1361 12.4196 10.5557 12 11.0732 12H12.9161C13.4336 12 13.8532 12.4196 13.8532 12.9371ZM8.32443 18.4659C8.32443 18.9834 7.9049 19.403 7.38735 19.403H5.54444C5.02689 19.403 4.60735 18.9834 4.60735 18.4659C4.60735 17.9483 5.02689 17.5288 5.54444 17.5288H7.38735C7.90485 17.5288 8.32443 17.9483 8.32443 18.4659ZM19.3927 18.4659C19.3927 18.9834 18.9732 19.403 18.4556 19.403H16.6127C16.0951 19.403 15.6756 18.9834 15.6756 18.4659C15.6756 17.9483 16.0951 17.5288 16.6127 17.5288H18.4556C18.9731 17.5288 19.3927 17.9483 19.3927 18.4659V18.4659ZM13.8532 18.4659C13.8532 18.9834 13.4337 19.403 12.9161 19.403H11.0732C10.5557 19.403 10.1361 18.9834 10.1361 18.4659C10.1361 17.9483 10.5557 17.5288 11.0732 17.5288H12.9161C13.4336 17.5288 13.8532 17.9483 13.8532 18.4659Z" fill="#ADB5BD"/>
</svg>
